<?xml version="1.0" standalone="no"?>
<!DOCTYPE svg PUBLIC "-//W3C//DTD SVG 20010904//EN"
 "http://www.w3.org/TR/2001/REC-SVG-20010904/DTD/svg10.dtd">
<svg version="1.0" xmlns="http://www.w3.org/2000/svg"
 width="300.000000pt" height="300.000000pt" viewBox="0 0 300.000000 300.000000"
 preserveAspectRatio="xMidYMid meet">
<metadata>
Created by potrace 1.11, written by Peter Selinger 2001-2013
</metadata>
<g transform="translate(0.000000,300.000000) scale(0.100000,-0.100000)"
fill="#000000" stroke="none">
<path d="M1245 2984 c-264 -41 -458 -127 -603 -268 -66 -64 -106 -121 -96
-137 4 -8 3 -10 -4 -5 -12 7 -62 -84 -77 -139 -5 -16 -9 -33 -10 -37 -2 -5 -3
-9 -5 -10 -2 -4 -7 -23 -18 -80 -13 -67 -9 -333 6 -325 4 3 8 -11 9 -30 4 -63
70 -179 146 -254 38 -38 75 -69 82 -69 7 0 18 -6 24 -14 13 -15 151 -84 214
-107 45 -16 47 -31 4 -38 -18 -2 -137 -67 -188 -102 -47 -32 -113 -92 -164
-149 -51 -59 -126 -257 -111 -296 3 -8 1 -14 -3 -14 -5 0 -8 -57 -6 -127 l3
-128 -54 -88 c-30 -48 -51 -93 -48 -99 4 -7 3 -8 -4 -4 -6 3 -16 -2 -21 -12
-8 -15 -5 -23 14 -41 14 -11 27 -21 29 -21 3 0 20 -13 38 -30 18 -16 38 -30
45 -30 7 0 13 -4 13 -8 0 -13 59 -44 70 -37 6 4 9 1 8 -5 -6 -24 208 -132 363
-183 199 -67 365 -92 599 -92 228 0 397 25 580 85 107 35 260 99 260 110 0 3
6 7 13 7 18 0 190 109 269 171 l67 53 -52 84 c-28 46 -56 81 -61 78 -5 -4 -6
-1 -2 6 4 6 2 19 -6 28 -9 12 -13 57 -14 162 -1 80 -5 157 -8 171 -3 14 -9 38
-12 55 -7 33 -8 34 -55 128 -19 39 -59 94 -91 127 -54 55 -166 140 -185 140
-5 0 -15 6 -21 13 -7 6 -16 12 -20 13 -4 0 -34 13 -67 29 l-60 27 43 13 c104
31 264 126 338 200 37 37 104 130 104 145 0 6 7 22 16 35 9 14 14 25 11 25 -4
0 1 19 9 43 27 73 27 376 0 360 -6 -4 -5 1 3 10 9 12 10 17 2 17 -7 0 -10 4
-6 9 5 10 -18 92 -35 123 -6 10 -10 24 -10 31 0 7 -9 23 -20 35 -12 12 -18 22
-14 22 13 0 -30 59 -101 137 -117 130 -357 249 -560 278 -23 3 -52 8 -65 11
-50 12 -425 11 -505 -2z m411 -259 c32 -4 68 -9 79 -10 95 -13 306 -103 398
-171 92 -68 135 -166 149 -349 3 -33 -16 -136 -34 -184 -24 -65 -117 -163
-185 -196 -23 -11 -39 -24 -36 -29 4 -5 1 -6 -4 -3 -6 4 -35 -4 -64 -17 -51
-22 -180 -63 -223 -72 -11 -2 -23 -9 -28 -16 -6 -10 -8 -10 -8 1 0 11 -3 11
-15 1 -8 -7 -15 -10 -15 -7 0 3 -31 -3 -70 -13 -44 -11 -89 -16 -122 -13 -29
3 -65 6 -80 7 -14 0 -24 4 -21 9 2 4 -6 7 -19 7 -13 0 -30 4 -38 10 -9 6 -20
5 -29 -3 -10 -8 -13 -8 -8 -1 4 7 -4 14 -21 18 -44 11 -135 37 -159 47 -13 5
-33 13 -45 17 -13 5 -51 23 -86 41 -35 17 -68 29 -73 25 -5 -3 -8 -2 -7 3 2 4
-26 36 -62 71 -35 34 -61 62 -56 62 5 0 2 8 -6 18 -28 31 -48 138 -44 236 6
157 51 263 143 331 115 86 327 165 481 181 37 3 68 7 69 8 5 5 183 -2 239 -9z
m-100 -1389 c12 -2 54 -14 94 -26 40 -12 80 -23 89 -25 9 -2 42 -12 73 -23 31
-11 59 -17 62 -14 3 3 6 0 6 -6 0 -7 5 -12 11 -12 30 0 177 -88 234 -139 29
-26 85 -108 85 -125 0 -8 5 -18 10 -21 6 -3 10 -12 10 -20 0 -8 5 -26 12 -42
6 -15 10 -32 9 -38 -2 -5 -3 -35 -2 -65 4 -223 -115 -381 -346 -461 -29 -10
-53 -16 -53 -14 0 2 -15 -1 -32 -6 -18 -5 -53 -11 -78 -14 -25 -3 -56 -8 -69
-11 -13 -3 -90 -5 -171 -5 -209 0 -384 32 -501 92 -162 82 -248 222 -247 401
0 42 -3 82 -7 89 -6 8 -4 10 5 4 10 -6 12 -1 8 19 -3 14 -1 26 3 26 5 0 9 6 9
13 0 6 11 36 25 66 31 65 122 157 195 195 29 15 61 32 69 37 62 33 278 103
391 125 13 3 26 7 28 9 4 3 40 -1 78 -9z"/>
</g>
</svg>
